<?xml version="1.0" encoding="utf-8"?>
<!-- Generator: Adobe Illustrator 23.0.1, SVG Export Plug-In . SVG Version: 6.00 Build 0)  -->
<svg version="1.1" id="Layer_1" xmlns="http://www.w3.org/2000/svg" xmlns:xlink="http://www.w3.org/1999/xlink" x="0px" y="0px"
	 viewBox="0 0 244.7 258.9" style="enable-background:new 0 0 244.7 258.9;" xml:space="preserve">
<style type="text/css">
	.st0{fill:#1A1A1A;}
	.st1{fill:#FBB03B;}
	.st2{fill:#FFFFFF;}
</style>
<g id="penguin_x5F_confused0_x28_0_x29_">
	<path class="st0" d="M215,105.3c7.2,1.5,10.8,8.1,16.7,19.5c3.5,6.8,5.5,12.8,9.4,24.8c0,0,2.5,7.9,3.4,19.3
		c0.5,5.8,0.2,8.5-1.4,9.8c-0.6,0.5-2.2,1.4-8.8-1.5c-3-1.3-7.3-3.5-12-7.1c-11.5-9.5-17.1-20-19.9-26.3c-4.9-11.4-4.8-19.1-4.1-24
		c0.5-3.6,1.3-8.6,5-12C208,103.8,213.9,105.1,215,105.3z"/>
	<path class="st0" d="M29.7,105.3c-7.2,1.5-10.8,8.1-16.7,19.5c-3.5,6.8-5.5,12.8-9.3,24.8c0,0-2.5,7.9-3.4,19.3
		c-0.5,5.8-0.2,8.5,1.4,9.8c0.7,0.5,2.2,1.4,8.8-1.5c3-1.3,7.3-3.5,12-7.1c11.5-9.5,17.1-20,19.9-26.3c4.9-11.4,4.8-19.1,4.1-24
		c-0.5-3.6-1.3-8.6-5-12C36.7,103.8,30.7,105.1,29.7,105.3z"/>
	<g>
		
			<ellipse transform="matrix(0.7835 -0.6214 0.6214 0.7835 -112.6533 157.7712)" class="st1" cx="170.1" cy="240.6" rx="16.4" ry="19.5"/>
		
			<ellipse transform="matrix(0.2852 -0.9585 0.9585 0.2852 -89.8461 343.9365)" class="st1" cx="185.7" cy="232.2" rx="8.5" ry="24.6"/>
		
			<ellipse transform="matrix(0.6744 -0.7384 0.7384 0.6744 -127.6434 191.2253)" class="st1" cx="153" cy="240.3" rx="22" ry="9.5"/>
	</g>
	<g>
		
			<ellipse transform="matrix(0.6214 -0.7835 0.7835 0.6214 -160.5388 148.8781)" class="st1" cx="73.8" cy="240.6" rx="19.5" ry="16.4"/>
		
			<ellipse transform="matrix(0.9585 -0.2852 0.2852 0.9585 -63.8153 26.2576)" class="st1" cx="58.3" cy="232.2" rx="24.6" ry="8.5"/>
		
			<ellipse transform="matrix(0.7384 -0.6744 0.6744 0.7384 -138.3126 124.1901)" class="st1" cx="90.9" cy="240.4" rx="9.5" ry="22"/>
	</g>
	<g>
		<ellipse class="st0" cx="123" cy="124" rx="103.5" ry="124"/>
	</g>
	<path class="st2" d="M138.5,97.5c29.6,57.4,29.3,135.4,1,148.5c-11.3,5.3-30.8,1.8-35,1c-12.2-2.4-20.7-7.1-26-10
		c-13-7.3-20.8-15.4-27-22c-1.6-1.7-11.7-12.4-15-22c-2.3-6.7-2-13-2-13c0.1-0.9,0.1-1.7,0.3-2.7c0.5-2.9,1.7-6.1,6.3-22.4
		c1-3.6,1.9-8.1,2.4-13.9c1.8-23-6.2-27.7-4-43.5C42.8,73.9,65.8,47.6,89,48C113.3,48.5,128,77.1,138.5,97.5z"/>
	<path class="st2" d="M106.7,97.5c-29.6,57.4-29.3,135.4-1,148.5c11.3,5.3,30.8,1.8,35,1c12.2-2.4,20.7-7.1,26-10
		c13-7.3,20.8-15.4,27-22c1.6-1.7,11.7-12.4,15-22c2.3-6.7,2-13,2-13c0-0.9-0.1-1.7-0.3-2.7c-0.5-2.9-1.7-6.1-6.4-22.4
		c-1-3.6-1.9-8.1-2.4-13.9c-1.8-23,6.2-27.7,4-43.5c-3.3-23.6-26.3-49.9-49.5-49.5C131.9,48.5,117.2,77.1,106.7,97.5z"/>
	<circle cx="82" cy="93.5" r="9.5"/>
	<circle cx="161" cy="93.5" r="9.5"/>
	<polygon class="st1" points="123.5,132 109.1,111.1 122.5,97.6 136.7,112 	"/>
</g>
</svg>
