<svg id="Layer_1" data-name="Layer 1" xmlns="http://www.w3.org/2000/svg" viewBox="0 0 31.79 38.06"><defs><style>.cls-1{fill:#fff;}.cls-1,.cls-2,.cls-4,.cls-5,.cls-6,.cls-7{stroke:#000;stroke-miterlimit:10;stroke-width:0.25px;}.cls-2,.cls-4,.cls-5,.cls-6,.cls-7{fill:none;}.cls-2,.cls-3{opacity:0.2;}.cls-2{isolation:isolate;}.cls-5{stroke-dasharray:1 1;}.cls-6{stroke-dasharray:1.01 1.01;}.cls-7{stroke-dasharray:1.01 1.01;}.cls-8{font-size:16px;font-family:Thonburi;letter-spacing:0.2em;opacity:0.91;}.cls-9{letter-spacing:0.1em;}.cls-10{letter-spacing:0.2em;}</style></defs><title>name_icon</title><rect class="cls-1" x="0.13" y="0.3" width="31.54" height="31.54"/><polygon class="cls-2" points="0.13 31.84 0.13 0.3 31.66 31.84 31.66 0.3 0.13 31.84"/><g class="cls-3"><polyline class="cls-4" points="15.57 0.3 15.89 0.3 15.89 0.62"/><line class="cls-4" x1="15.89" y1="1.25" x2="15.89" y2="1.75"/><line class="cls-5" x1="15.89" y1="2.75" x2="15.89" y2="30.2"/><line class="cls-4" x1="15.89" y1="30.7" x2="15.89" y2="31.2"/><polyline class="cls-4" points="15.89 31.52 15.89 31.84 16.21 31.84"/><line class="cls-4" x1="16.87" y1="31.84" x2="17.37" y2="31.84"/><line class="cls-6" x1="18.38" y1="31.84" x2="30.01" y2="31.84"/><line class="cls-4" x1="30.51" y1="31.84" x2="31.01" y2="31.84"/><polyline class="cls-4" points="31.34 31.84 31.66 31.84 31.66 31.52"/><line class="cls-4" x1="31.66" y1="30.86" x2="31.66" y2="30.36"/><line class="cls-7" x1="31.66" y1="29.35" x2="31.66" y2="17.72"/><line class="cls-4" x1="31.66" y1="17.22" x2="31.66" y2="16.72"/><polyline class="cls-4" points="31.66 16.39 31.66 16.07 31.34 16.07"/><line class="cls-4" x1="30.71" y1="16.07" x2="30.21" y2="16.07"/><line class="cls-5" x1="29.21" y1="16.07" x2="1.76" y2="16.07"/><line class="cls-4" x1="1.26" y1="16.07" x2="0.76" y2="16.07"/><polyline class="cls-4" points="0.44 16.07 0.13 16.07 0.13 15.75"/><line class="cls-4" x1="0.13" y1="15.09" x2="0.13" y2="14.59"/><line class="cls-7" x1="0.13" y1="13.58" x2="0.13" y2="1.95"/><line class="cls-4" x1="0.13" y1="1.45" x2="0.13" y2="0.95"/><polyline class="cls-4" points="0.13 0.62 0.13 0.3 0.44 0.3"/><line class="cls-4" x1="1.1" y1="0.3" x2="1.6" y2="0.3"/><line class="cls-6" x1="2.61" y1="0.3" x2="14.24" y2="0.3"/><line class="cls-4" x1="14.75" y1="0.3" x2="15.25" y2="0.3"/></g><text class="cls-8" transform="translate(2.47 15.91)">A<tspan class="cls-9"><tspan x="0" y="13" xml:space="preserve">  </tspan><tspan class="cls-10" x="13.82" y="13">H</tspan></tspan></text></svg>